<svg xmlns="http://www.w3.org/2000/svg" width="770" height="100"><style >
.baseline {
    white-space: pre-line;
    dominant-baseline: central;
}
.name {
    font: 14px sans-serif;
    text-anchor: middle;
}
.msb {
    font: 12px sans-serif;
    text-anchor: start;
}
.lsb {
    font: 12px sans-serif;
    text-anchor: end;
}
.width {
    font: 12px sans-serif;
    text-anchor: middle;
}
.left_annotation {
    font: 12px sans-serif;
    text-anchor: end;
}
.right_annotation {
    font: 12px sans-serif;
    text-anchor: start;
}
</style><defs ><pattern id="hatching" patternUnits="userSpaceOnUse" patternTransform="rotate(45 0 0)" width="5" height="5"><line stroke="black" stroke-width="1" x1="0" y1="0" x2="0" y2="5"/></pattern></defs><text class="baseline left_annotation" x="90" y="50">Sub</text><rect x="100" y="30" width="20" height="40" fill="#EEE"/><rect x="120" y="30" width="20" height="40" fill="#EEE"/><rect x="140" y="30" width="20" height="40" fill="#EEE"/><rect x="160" y="30" width="20" height="40" fill="#EEE"/><rect x="180" y="30" width="20" height="40" fill="#FFF"/><rect x="200" y="30" width="20" height="40" fill="#FFF"/><rect x="220" y="30" width="20" height="40" fill="#FFF"/><rect x="240" y="30" width="20" height="40" fill="#FFF"/><rect x="260" y="30" width="20" height="40" fill="#EEE"/><rect x="280" y="30" width="20" height="40" fill="#EEE"/><rect x="300" y="30" width="20" height="40" fill="#EEE"/><rect x="320" y="30" width="20" height="40" fill="#EEE"/><rect x="340" y="30" width="20" height="40" fill="#FFF"/><rect x="360" y="30" width="20" height="40" fill="#FFF"/><rect x="380" y="30" width="20" height="40" fill="#FFF"/><path stroke="black" stroke-width="1" d="M 400 70 L 100 70 L 100 30 L 400 30" fill="transparent"/><text class="baseline name" x="250" y="50"/><text class="baseline msb" x="103" y="18">31</text><text class="baseline lsb" x="397" y="18">17</text><text class="baseline width" x="250" y="84">15</text><line stroke="black" stroke-width="1" x1="120" y1="30" x2="120" y2="35"/><line stroke="black" stroke-width="1" x1="120" y1="65" x2="120" y2="70"/><line stroke="black" stroke-width="1" x1="140" y1="30" x2="140" y2="35"/><line stroke="black" stroke-width="1" x1="140" y1="65" x2="140" y2="70"/><line stroke="black" stroke-width="1" x1="160" y1="30" x2="160" y2="35"/><line stroke="black" stroke-width="1" x1="160" y1="65" x2="160" y2="70"/><line stroke="black" stroke-width="1" x1="180" y1="30" x2="180" y2="35"/><line stroke="black" stroke-width="1" x1="180" y1="65" x2="180" y2="70"/><line stroke="black" stroke-width="1" x1="200" y1="30" x2="200" y2="35"/><line stroke="black" stroke-width="1" x1="200" y1="65" x2="200" y2="70"/><line stroke="black" stroke-width="1" x1="220" y1="30" x2="220" y2="35"/><line stroke="black" stroke-width="1" x1="220" y1="65" x2="220" y2="70"/><line stroke="black" stroke-width="1" x1="240" y1="30" x2="240" y2="35"/><line stroke="black" stroke-width="1" x1="240" y1="65" x2="240" y2="70"/><line stroke="black" stroke-width="1" x1="260" y1="30" x2="260" y2="35"/><line stroke="black" stroke-width="1" x1="260" y1="65" x2="260" y2="70"/><line stroke="black" stroke-width="1" x1="280" y1="30" x2="280" y2="35"/><line stroke="black" stroke-width="1" x1="280" y1="65" x2="280" y2="70"/><line stroke="black" stroke-width="1" x1="300" y1="30" x2="300" y2="35"/><line stroke="black" stroke-width="1" x1="300" y1="65" x2="300" y2="70"/><line stroke="black" stroke-width="1" x1="320" y1="30" x2="320" y2="35"/><line stroke="black" stroke-width="1" x1="320" y1="65" x2="320" y2="70"/><line stroke="black" stroke-width="1" x1="340" y1="30" x2="340" y2="35"/><line stroke="black" stroke-width="1" x1="340" y1="65" x2="340" y2="70"/><line stroke="black" stroke-width="1" x1="360" y1="30" x2="360" y2="35"/><line stroke="black" stroke-width="1" x1="360" y1="65" x2="360" y2="70"/><line stroke="black" stroke-width="1" x1="380" y1="30" x2="380" y2="35"/><line stroke="black" stroke-width="1" x1="380" y1="65" x2="380" y2="70"/><rect x="100" y="30" width="300" height="40" fill="url(#hatching)"/><rect x="400" y="30" width="20" height="40" fill="#FFF"/><rect x="420" y="30" width="20" height="40" fill="#EEE"/><rect x="440" y="30" width="20" height="40" fill="#EEE"/><rect x="460" y="30" width="20" height="40" fill="#EEE"/><rect x="480" y="30" width="20" height="40" fill="#EEE"/><path stroke="black" stroke-width="1" d="M 500 70 L 400 70 L 400 30 L 500 30" fill="transparent"/><text class="baseline name" x="450" y="50">src_b</text><text class="baseline msb" x="403" y="18">16</text><text class="baseline lsb" x="497" y="18">12</text><text class="baseline width" x="450" y="84">5</text><line stroke="black" stroke-width="1" x1="420" y1="30" x2="420" y2="35"/><line stroke="black" stroke-width="1" x1="420" y1="65" x2="420" y2="70"/><line stroke="black" stroke-width="1" x1="440" y1="30" x2="440" y2="35"/><line stroke="black" stroke-width="1" x1="440" y1="65" x2="440" y2="70"/><line stroke="black" stroke-width="1" x1="460" y1="30" x2="460" y2="35"/><line stroke="black" stroke-width="1" x1="460" y1="65" x2="460" y2="70"/><line stroke="black" stroke-width="1" x1="480" y1="30" x2="480" y2="35"/><line stroke="black" stroke-width="1" x1="480" y1="65" x2="480" y2="70"/><rect x="500" y="30" width="20" height="40" fill="#FFF"/><rect x="520" y="30" width="20" height="40" fill="#FFF"/><rect x="540" y="30" width="20" height="40" fill="#FFF"/><rect x="560" y="30" width="20" height="40" fill="#FFF"/><rect x="580" y="30" width="20" height="40" fill="#EEE"/><path stroke="black" stroke-width="1" d="M 600 70 L 500 70 L 500 30 L 600 30" fill="transparent"/><text class="baseline name" x="550" y="50">src_a</text><text class="baseline msb" x="503" y="18">11</text><text class="baseline lsb" x="597" y="18">7</text><text class="baseline width" x="550" y="84">5</text><line stroke="black" stroke-width="1" x1="520" y1="30" x2="520" y2="35"/><line stroke="black" stroke-width="1" x1="520" y1="65" x2="520" y2="70"/><line stroke="black" stroke-width="1" x1="540" y1="30" x2="540" y2="35"/><line stroke="black" stroke-width="1" x1="540" y1="65" x2="540" y2="70"/><line stroke="black" stroke-width="1" x1="560" y1="30" x2="560" y2="35"/><line stroke="black" stroke-width="1" x1="560" y1="65" x2="560" y2="70"/><line stroke="black" stroke-width="1" x1="580" y1="30" x2="580" y2="35"/><line stroke="black" stroke-width="1" x1="580" y1="65" x2="580" y2="70"/><rect x="600" y="30" width="20" height="40" fill="#EEE"/><rect x="620" y="30" width="20" height="40" fill="#EEE"/><rect x="640" y="30" width="20" height="40" fill="#EEE"/><rect x="660" y="30" width="20" height="40" fill="#FFF"/><rect x="680" y="30" width="20" height="40" fill="#FFF"/><path stroke="black" stroke-width="1" d="M 700 70 L 600 70 L 600 30 L 700 30" fill="transparent"/><text class="baseline name" x="650" y="50">tgt</text><text class="baseline msb" x="603" y="18">6</text><text class="baseline lsb" x="697" y="18">2</text><text class="baseline width" x="650" y="84">5</text><line stroke="black" stroke-width="1" x1="620" y1="30" x2="620" y2="35"/><line stroke="black" stroke-width="1" x1="620" y1="65" x2="620" y2="70"/><line stroke="black" stroke-width="1" x1="640" y1="30" x2="640" y2="35"/><line stroke="black" stroke-width="1" x1="640" y1="65" x2="640" y2="70"/><line stroke="black" stroke-width="1" x1="660" y1="30" x2="660" y2="35"/><line stroke="black" stroke-width="1" x1="660" y1="65" x2="660" y2="70"/><line stroke="black" stroke-width="1" x1="680" y1="30" x2="680" y2="35"/><line stroke="black" stroke-width="1" x1="680" y1="65" x2="680" y2="70"/><rect x="700" y="30" width="20" height="40" fill="#FFF"/><rect x="720" y="30" width="20" height="40" fill="#FFF"/><path stroke="black" stroke-width="1" d="M 740 70 L 700 70 L 700 30 L 740 30 L 740 70" fill="transparent"/><text class="baseline name" x="720" y="50">op</text><text class="baseline msb" x="703" y="18">1</text><text class="baseline lsb" x="737" y="18">0</text><text class="baseline width" x="720" y="84">2</text><line stroke="black" stroke-width="1" x1="720" y1="30" x2="720" y2="35"/><line stroke="black" stroke-width="1" x1="720" y1="65" x2="720" y2="70"/></svg>
